<svg width="30" height="26" viewBox="0 0 30 26" fill="none" xmlns="http://www.w3.org/2000/svg">
<path d="M26.05 3.76258C25.4116 3.12384 24.6535 2.61714 23.8192 2.27144C22.9849 1.92574 22.0906 1.7478 21.1875 1.7478C20.2844 1.7478 19.3901 1.92574 18.5558 2.27144C17.7215 2.61714 16.9634 3.12384 16.325 3.76258L15 5.08758L13.675 3.76258C12.3854 2.47297 10.6363 1.74847 8.8125 1.74847C6.9887 1.74847 5.23961 2.47297 3.95 3.76258C2.66038 5.0522 1.93588 6.80129 1.93588 8.62508C1.93588 10.4489 2.66038 12.198 3.95 13.4876L5.275 14.8126L15 24.5376L24.725 14.8126L26.05 13.4876C26.6887 12.8491 27.1954 12.0911 27.5411 11.2568C27.8868 10.4225 28.0648 9.52819 28.0648 8.62508C28.0648 7.72198 27.8868 6.82771 27.5411 5.99339C27.1954 5.15907 26.6887 4.40103 26.05 3.76258V3.76258Z" stroke="#9A9A9A" stroke-width="2.5" stroke-linecap="round" stroke-linejoin="round"/>
</svg>
